<svg width="1000" height="1000" viewBox="0 0 1000 1000" fill="none" xmlns="http://www.w3.org/2000/svg">
<g clip-path="url(#clip0_214_8)">
<path d="M0 0H1000V1000H0V0Z" fill="#FAFAFC"/>
<path d="M111 500.2V685.111L238.993 684.245C382.01 683.089 381.144 683.089 425.349 661.42C466.376 641.484 496.424 605.946 512.893 558.563C516.071 548.739 519.538 528.226 520.983 509.157C524.161 468.419 533.984 445.305 555.076 429.125C577.034 412.367 591.48 409.767 653.599 410.923C705.605 411.789 708.205 412.078 722.074 419.59C750.966 434.903 766.857 459.751 769.168 492.977C770.324 512.913 765.99 541.805 761.078 544.694C759.923 545.272 753.277 538.916 746.343 530.248L733.631 514.357H677.29H620.95L659.377 552.784C680.469 573.876 696.937 592.078 695.782 593.234C694.626 594.389 672.668 595.256 646.953 595.256C612.572 595.256 596.103 594.1 584.835 590.633C567.211 585.433 547.564 573.009 540.918 562.897C536.585 556.54 536.585 556.54 532.829 567.808C526.761 586.588 513.76 610.569 500.758 627.038L488.623 642.351L496.713 648.996C508.27 658.241 533.695 670.087 555.654 676.733C570.967 681.355 585.991 682.8 629.618 683.956C690.581 685.4 713.695 682.511 743.165 668.932L759.345 661.42L769.457 673.265L779.858 685.111L834.754 684.245L889.649 683.378L855.267 648.129L820.886 612.88L830.998 599.012C861.335 557.696 872.603 510.89 863.935 462.929C851.8 395.321 799.216 341.292 726.408 321.645C698.093 313.844 588.88 314.133 560.276 321.934C503.647 337.247 461.464 371.629 438.639 420.457C427.949 443.86 424.193 460.618 420.437 501.645C416.392 544.983 403.969 565.208 371.031 580.521C355.429 587.744 353.407 588.033 283.776 588.9L212.123 590.055V499.911V410.056L285.221 410.923C355.141 411.789 358.608 412.078 372.187 418.724C379.699 422.48 390.389 429.992 395.879 435.481C402.524 442.126 406.28 444.149 407.147 441.549C418.704 408.033 428.527 389.831 448.752 363.828L454.819 356.027L440.373 346.782C432.283 341.581 417.837 334.069 408.302 330.313C374.21 316.445 356.296 315 229.17 315H111V500.2Z" fill="black"/>
</g>
<defs>
<clipPath id="clip0_214_8">
<rect width="1000" height="1000" fill="white"/>
</clipPath>
</defs>
</svg>
